<?xml version="1.0" standalone="no"?>
<!DOCTYPE svg PUBLIC "-//W3C//DTD SVG 20010904//EN"
 "http://www.w3.org/TR/2001/REC-SVG-20010904/DTD/svg10.dtd">
<svg version="1.0" xmlns="http://www.w3.org/2000/svg"
 width="710.000000pt" height="280.000000pt" viewBox="0 0 710.000000 280.000000"
 preserveAspectRatio="xMidYMid meet">

<g transform="translate(0.000000,280.000000) scale(0.100000,-0.100000)"
fill="#000000" stroke="none">
<path d="M3431 2689 c-258 -55 -544 -248 -634 -426 -46 -91 -92 -283 -96 -403
-3 -84 23 -257 50 -334 55 -157 117 -255 244 -390 44 -46 167 -147 203 -165
40 -21 40 -22 -133 -101 -291 -134 -585 -221 -1033 -304 -371 -69 -701 -109
-962 -116 -260 -7 -694 2 -742 16 -27 8 -22 16 37 64 78 64 90 121 34 162 -44
33 -75 17 -217 -120 -124 -119 -132 -129 -132 -165 0 -34 9 -47 88 -127 118
-120 157 -150 198 -150 45 0 86 43 77 80 -7 29 -32 70 -42 70 -4 0 -16 7 -27
15 -17 14 -6 15 121 9 423 -22 877 3 1320 72 672 105 1005 201 1468 422 l137
65 103 -31 c101 -32 162 -43 327 -62 103 -12 412 -11 535 2 182 19 494 87 760
166 188 56 551 224 725 336 229 148 330 220 502 358 308 249 501 461 627 691
36 66 42 84 36 113 -5 28 -13 39 -40 50 -60 25 -87 5 -150 -111 -72 -131 -161
-243 -314 -396 -350 -348 -849 -680 -1251 -834 -289 -110 -622 -191 -918 -224
-113 -12 -342 -13 -480 -2 -124 11 -282 40 -282 53 0 5 30 29 67 56 68 48 236
189 308 258 33 32 118 129 148 169 4 5 24 33 45 60 92 122 134 216 182 401 27
102 30 129 25 211 -10 187 -94 354 -229 451 -62 45 -85 56 -201 94 -80 27
-107 30 -240 34 -124 3 -166 0 -244 -17z m440 -165 c96 -30 142 -57 199 -116
146 -152 159 -413 33 -662 -106 -211 -364 -476 -646 -664 l-68 -46 -37 20
c-63 33 -195 135 -250 193 -67 70 -152 197 -185 276 -71 172 -76 422 -11 602
46 127 186 253 389 350 101 48 223 71 372 72 105 1 134 -3 204 -25z"/>
</g>
</svg>
