<?xml version="1.0" standalone="no"?>
<!DOCTYPE svg PUBLIC "-//W3C//DTD SVG 20010904//EN"
 "http://www.w3.org/TR/2001/REC-SVG-20010904/DTD/svg10.dtd">
<svg version="1.0" xmlns="http://www.w3.org/2000/svg"
 width="768.000000pt" height="425.000000pt" viewBox="0 0 768.000000 425.000000"
 preserveAspectRatio="xMidYMid meet">

<g transform="translate(0.000000,425.000000) scale(0.100000,-0.100000)"
fill="#000000" stroke="none">
<path d="M2519 2956 c-2 -2 -55 -6 -117 -10 -427 -24 -866 -151 -1357 -391
-286 -140 -438 -231 -600 -360 -163 -131 -285 -264 -285 -311 0 -26 37 -72 60
-75 42 -4 62 10 164 114 135 138 241 221 423 331 497 301 1069 500 1558 543
143 13 618 9 735 -5 198 -24 413 -75 565 -135 55 -21 115 -44 133 -50 43 -16
37 -35 -18 -56 -136 -52 -380 -189 -500 -282 -193 -150 -272 -239 -368 -419
-66 -124 -92 -218 -92 -335 0 -154 37 -261 128 -378 85 -108 275 -209 452
-241 19 -3 46 -8 60 -11 59 -13 230 -12 300 0 97 18 248 66 330 106 80 38 189
118 222 162 79 103 165 294 189 420 61 321 -47 664 -286 910 -20 20 -34 41
-31 46 18 29 433 99 716 120 117 9 523 7 705 -4 431 -25 876 -89 1165 -167 41
-11 107 -29 145 -39 160 -42 199 -55 202 -66 2 -6 -21 -24 -52 -39 -31 -16
-65 -39 -77 -51 -26 -28 -26 -79 0 -106 37 -37 77 -26 217 57 188 113 214 143
178 209 -48 88 -160 247 -184 261 -38 22 -72 20 -97 -7 -30 -32 -28 -78 4
-117 43 -50 39 -50 -171 9 -303 86 -662 147 -1091 185 -149 14 -395 21 -694
21 -289 -1 -358 -4 -500 -23 -184 -25 -305 -48 -491 -93 l-126 -31 -89 50
c-149 84 -429 180 -604 207 -25 3 -58 10 -75 15 -16 5 -59 12 -95 15 -36 3
-92 10 -125 14 -56 8 -518 14 -526 7z m1566 -563 c278 -279 349 -638 197 -993
-24 -57 -84 -150 -109 -170 -121 -95 -287 -164 -458 -190 -221 -34 -506 47
-624 176 -267 292 -64 754 463 1056 152 86 395 198 432 198 14 0 50 -29 99
-77z"/>
</g>
</svg>
